# xmcd
#
# Track frame offsets:
#	150
#	14510
#	32985
#	48195
#	64565
#	82315
#	98272
#	113075
#	126865
#	141845
#	157037
#	177360
#
# Disc length: 2579 seconds
#
# Revision: 1
# Processed by: cddbd v1.5.1PL0 Copyright (c) Steve Scherf et al.
# Submitted via: audiograbber 1.83.01
#
DISCID=9d0a110c
DTITLE=Elvis Presley - The Gospel Songs
DYEAR=2000
DGENRE=Gospel
TTITLE0=In The Garden
TTITLE1=Farther Along
TTITLE2=Peace In The Valley
TTITLE3=Where Could I Go But To The Lord
TTITLE4=It Is No Secret
TTITLE5=If That Isn't Love
TTITLE6=His Hand In Mine
TTITLE7=How Great Thou Art
TTITLE8=Take My Hand Precious Lord
TTITLE9=Who Am I
TTITLE10=Bridge Over Troubled Water
TTITLE11=Amazing Grace
EXTD=
EXTT0=
EXTT1=
EXTT2=
EXTT3=
EXTT4=
EXTT5=
EXTT6=
EXTT7=
EXTT8=
EXTT9=
EXTT10=
EXTT11=
PLAYORDER=
